<mxfile host="app.diagrams.net" agent="Mozilla/5.0 (Windows NT 10.0; Win64; x64) AppleWebKit/537.36 (KHTML, like Gecko) Chrome/131.0.0.0 Safari/537.36" version="24.8.4">
  <diagram name="Page-1" id="K9lYarscZskd7IeuQ7MP">
    <mxGraphModel dx="674" dy="1053" grid="1" gridSize="10" guides="1" tooltips="1" connect="1" arrows="1" fold="1" page="1" pageScale="1" pageWidth="850" pageHeight="1100" math="0" shadow="0">
      <root>
        <mxCell id="0" />
        <mxCell id="1" parent="0" />
        <mxCell id="fQGNN-js2F_-_JPltrCh-1" value="User" style="shape=umlActor;verticalLabelPosition=bottom;verticalAlign=top;html=1;outlineConnect=0;" vertex="1" parent="1">
          <mxGeometry x="10" y="350" width="40" height="80" as="geometry" />
        </mxCell>
        <mxCell id="fQGNN-js2F_-_JPltrCh-4" value="Cutie Baby Shop" style="shape=umlActor;verticalLabelPosition=bottom;verticalAlign=top;html=1;outlineConnect=0;" vertex="1" parent="1">
          <mxGeometry x="840" y="350" width="40" height="80" as="geometry" />
        </mxCell>
        <mxCell id="fQGNN-js2F_-_JPltrCh-10" style="edgeStyle=orthogonalEdgeStyle;rounded=0;orthogonalLoop=1;jettySize=auto;html=1;exitX=0;exitY=0.5;exitDx=0;exitDy=0;endArrow=none;endFill=0;" edge="1" parent="1" source="fQGNN-js2F_-_JPltrCh-6" target="fQGNN-js2F_-_JPltrCh-1">
          <mxGeometry relative="1" as="geometry" />
        </mxCell>
        <mxCell id="fQGNN-js2F_-_JPltrCh-22" style="edgeStyle=orthogonalEdgeStyle;rounded=0;orthogonalLoop=1;jettySize=auto;html=1;exitX=1;exitY=0.5;exitDx=0;exitDy=0;entryX=0;entryY=0.5;entryDx=0;entryDy=0;dashed=1;" edge="1" parent="1" source="fQGNN-js2F_-_JPltrCh-6" target="fQGNN-js2F_-_JPltrCh-14">
          <mxGeometry relative="1" as="geometry" />
        </mxCell>
        <mxCell id="fQGNN-js2F_-_JPltrCh-23" value="&amp;lt;&amp;lt;include&amp;gt;&amp;gt;" style="edgeLabel;html=1;align=center;verticalAlign=middle;resizable=0;points=[];fontSize=8;" vertex="1" connectable="0" parent="fQGNN-js2F_-_JPltrCh-22">
          <mxGeometry x="-0.1906" y="1" relative="1" as="geometry">
            <mxPoint as="offset" />
          </mxGeometry>
        </mxCell>
        <mxCell id="fQGNN-js2F_-_JPltrCh-76" style="rounded=0;orthogonalLoop=1;jettySize=auto;html=1;exitX=1;exitY=1;exitDx=0;exitDy=0;entryX=0;entryY=0.5;entryDx=0;entryDy=0;dashed=1;" edge="1" parent="1" source="fQGNN-js2F_-_JPltrCh-6" target="fQGNN-js2F_-_JPltrCh-54">
          <mxGeometry relative="1" as="geometry" />
        </mxCell>
        <mxCell id="fQGNN-js2F_-_JPltrCh-6" value="Login" style="ellipse;whiteSpace=wrap;html=1;" vertex="1" parent="1">
          <mxGeometry x="140" y="365" width="75" height="50" as="geometry" />
        </mxCell>
        <mxCell id="fQGNN-js2F_-_JPltrCh-28" style="edgeStyle=orthogonalEdgeStyle;rounded=0;orthogonalLoop=1;jettySize=auto;html=1;exitX=0.5;exitY=0;exitDx=0;exitDy=0;entryX=0.5;entryY=1;entryDx=0;entryDy=0;dashed=1;" edge="1" parent="1" source="fQGNN-js2F_-_JPltrCh-7" target="fQGNN-js2F_-_JPltrCh-6">
          <mxGeometry relative="1" as="geometry" />
        </mxCell>
        <mxCell id="fQGNN-js2F_-_JPltrCh-29" value="&amp;lt;&amp;lt;include&amp;gt;&amp;gt;" style="edgeLabel;html=1;align=center;verticalAlign=middle;resizable=0;points=[];fontSize=8;" vertex="1" connectable="0" parent="fQGNN-js2F_-_JPltrCh-28">
          <mxGeometry x="0.0406" y="1" relative="1" as="geometry">
            <mxPoint as="offset" />
          </mxGeometry>
        </mxCell>
        <mxCell id="fQGNN-js2F_-_JPltrCh-7" value="Register" style="ellipse;whiteSpace=wrap;html=1;" vertex="1" parent="1">
          <mxGeometry x="140" y="490" width="75" height="50" as="geometry" />
        </mxCell>
        <mxCell id="fQGNN-js2F_-_JPltrCh-18" style="rounded=0;orthogonalLoop=1;jettySize=auto;html=1;exitX=0;exitY=0.5;exitDx=0;exitDy=0;endArrow=none;endFill=0;" edge="1" parent="1" source="fQGNN-js2F_-_JPltrCh-13" target="fQGNN-js2F_-_JPltrCh-1">
          <mxGeometry relative="1" as="geometry">
            <mxPoint x="60" y="350" as="targetPoint" />
          </mxGeometry>
        </mxCell>
        <mxCell id="fQGNN-js2F_-_JPltrCh-19" style="edgeStyle=orthogonalEdgeStyle;rounded=0;orthogonalLoop=1;jettySize=auto;html=1;exitX=0.5;exitY=1;exitDx=0;exitDy=0;entryX=0.5;entryY=0;entryDx=0;entryDy=0;dashed=1;" edge="1" parent="1" source="fQGNN-js2F_-_JPltrCh-13" target="fQGNN-js2F_-_JPltrCh-6">
          <mxGeometry relative="1" as="geometry" />
        </mxCell>
        <mxCell id="fQGNN-js2F_-_JPltrCh-20" value="&amp;lt;&amp;lt;include&amp;gt;&amp;gt;" style="edgeLabel;html=1;align=center;verticalAlign=middle;resizable=0;points=[];fontSize=8;" vertex="1" connectable="0" parent="fQGNN-js2F_-_JPltrCh-19">
          <mxGeometry x="-0.0396" y="3" relative="1" as="geometry">
            <mxPoint x="-3" y="-1" as="offset" />
          </mxGeometry>
        </mxCell>
        <mxCell id="fQGNN-js2F_-_JPltrCh-13" value="Shop" style="ellipse;whiteSpace=wrap;html=1;" vertex="1" parent="1">
          <mxGeometry x="140" y="280" width="75" height="50" as="geometry" />
        </mxCell>
        <mxCell id="fQGNN-js2F_-_JPltrCh-32" style="edgeStyle=orthogonalEdgeStyle;rounded=0;orthogonalLoop=1;jettySize=auto;html=1;exitX=0.5;exitY=0;exitDx=0;exitDy=0;entryX=0.5;entryY=1;entryDx=0;entryDy=0;dashed=1;" edge="1" parent="1" source="fQGNN-js2F_-_JPltrCh-14" target="fQGNN-js2F_-_JPltrCh-30">
          <mxGeometry relative="1" as="geometry" />
        </mxCell>
        <mxCell id="fQGNN-js2F_-_JPltrCh-33" value="&amp;lt;&amp;lt;include&amp;gt;&amp;gt;" style="edgeLabel;html=1;align=center;verticalAlign=middle;resizable=0;points=[];fontSize=8;" vertex="1" connectable="0" parent="fQGNN-js2F_-_JPltrCh-32">
          <mxGeometry x="-0.2667" y="-1" relative="1" as="geometry">
            <mxPoint as="offset" />
          </mxGeometry>
        </mxCell>
        <mxCell id="fQGNN-js2F_-_JPltrCh-14" value="Shopping Cart" style="ellipse;whiteSpace=wrap;html=1;" vertex="1" parent="1">
          <mxGeometry x="280" y="365" width="75" height="50" as="geometry" />
        </mxCell>
        <mxCell id="fQGNN-js2F_-_JPltrCh-25" style="rounded=0;orthogonalLoop=1;jettySize=auto;html=1;exitX=0;exitY=0;exitDx=0;exitDy=0;endArrow=none;endFill=0;" edge="1" parent="1" source="fQGNN-js2F_-_JPltrCh-21">
          <mxGeometry relative="1" as="geometry">
            <mxPoint x="50.00000000000006" y="410" as="targetPoint" />
          </mxGeometry>
        </mxCell>
        <mxCell id="fQGNN-js2F_-_JPltrCh-26" style="rounded=0;orthogonalLoop=1;jettySize=auto;html=1;exitX=1;exitY=1;exitDx=0;exitDy=0;entryX=0;entryY=0;entryDx=0;entryDy=0;dashed=1;" edge="1" parent="1" source="fQGNN-js2F_-_JPltrCh-21" target="fQGNN-js2F_-_JPltrCh-7">
          <mxGeometry relative="1" as="geometry">
            <mxPoint x="119.01650429449552" y="449.9976695296637" as="sourcePoint" />
            <mxPoint x="130" y="492.32" as="targetPoint" />
            <Array as="points">
              <mxPoint x="140" y="477.32" />
            </Array>
          </mxGeometry>
        </mxCell>
        <mxCell id="fQGNN-js2F_-_JPltrCh-27" value="&amp;lt;&amp;lt;include&amp;gt;&amp;gt;" style="edgeLabel;html=1;align=center;verticalAlign=middle;resizable=0;points=[];fontSize=8;" vertex="1" connectable="0" parent="fQGNN-js2F_-_JPltrCh-26">
          <mxGeometry x="0.1626" relative="1" as="geometry">
            <mxPoint x="-3" y="-2" as="offset" />
          </mxGeometry>
        </mxCell>
        <mxCell id="fQGNN-js2F_-_JPltrCh-21" value="insert data user" style="ellipse;whiteSpace=wrap;html=1;" vertex="1" parent="1">
          <mxGeometry x="65" y="420" width="75" height="50" as="geometry" />
        </mxCell>
        <mxCell id="fQGNN-js2F_-_JPltrCh-34" style="edgeStyle=orthogonalEdgeStyle;rounded=0;orthogonalLoop=1;jettySize=auto;html=1;exitX=1;exitY=0.5;exitDx=0;exitDy=0;entryX=0;entryY=0.5;entryDx=0;entryDy=0;dashed=1;" edge="1" parent="1" source="fQGNN-js2F_-_JPltrCh-30" target="fQGNN-js2F_-_JPltrCh-31">
          <mxGeometry relative="1" as="geometry" />
        </mxCell>
        <mxCell id="fQGNN-js2F_-_JPltrCh-35" value="&lt;font style=&quot;font-size: 8px;&quot;&gt;&amp;lt;&amp;lt;include&amp;gt;&amp;gt;&lt;/font&gt;" style="edgeLabel;html=1;align=center;verticalAlign=middle;resizable=0;points=[];fontSize=8;" vertex="1" connectable="0" parent="fQGNN-js2F_-_JPltrCh-34">
          <mxGeometry x="0.04" y="2" relative="1" as="geometry">
            <mxPoint x="-4" y="2" as="offset" />
          </mxGeometry>
        </mxCell>
        <mxCell id="fQGNN-js2F_-_JPltrCh-30" value="Checkout" style="ellipse;whiteSpace=wrap;html=1;" vertex="1" parent="1">
          <mxGeometry x="280" y="280" width="75" height="50" as="geometry" />
        </mxCell>
        <mxCell id="fQGNN-js2F_-_JPltrCh-51" style="edgeStyle=orthogonalEdgeStyle;rounded=0;orthogonalLoop=1;jettySize=auto;html=1;exitX=1;exitY=0.5;exitDx=0;exitDy=0;entryX=0;entryY=0.5;entryDx=0;entryDy=0;dashed=1;" edge="1" parent="1" source="fQGNN-js2F_-_JPltrCh-31" target="fQGNN-js2F_-_JPltrCh-50">
          <mxGeometry relative="1" as="geometry" />
        </mxCell>
        <mxCell id="fQGNN-js2F_-_JPltrCh-52" value="&lt;font style=&quot;font-size: 8px;&quot;&gt;&amp;lt;&amp;lt;include&amp;gt;&amp;gt;&lt;/font&gt;" style="edgeLabel;html=1;align=center;verticalAlign=middle;resizable=0;points=[];" vertex="1" connectable="0" parent="fQGNN-js2F_-_JPltrCh-51">
          <mxGeometry x="0.0023" y="1" relative="1" as="geometry">
            <mxPoint as="offset" />
          </mxGeometry>
        </mxCell>
        <mxCell id="fQGNN-js2F_-_JPltrCh-31" value="Select Shipping Option" style="ellipse;whiteSpace=wrap;html=1;" vertex="1" parent="1">
          <mxGeometry x="425" y="280" width="75" height="50" as="geometry" />
        </mxCell>
        <mxCell id="fQGNN-js2F_-_JPltrCh-37" style="edgeStyle=orthogonalEdgeStyle;rounded=0;orthogonalLoop=1;jettySize=auto;html=1;exitX=1;exitY=0.5;exitDx=0;exitDy=0;endArrow=none;endFill=0;" edge="1" parent="1" source="fQGNN-js2F_-_JPltrCh-36" target="fQGNN-js2F_-_JPltrCh-4">
          <mxGeometry relative="1" as="geometry" />
        </mxCell>
        <mxCell id="fQGNN-js2F_-_JPltrCh-38" style="edgeStyle=orthogonalEdgeStyle;rounded=0;orthogonalLoop=1;jettySize=auto;html=1;exitX=0;exitY=0.5;exitDx=0;exitDy=0;entryX=1;entryY=0.5;entryDx=0;entryDy=0;dashed=1;" edge="1" parent="1" source="fQGNN-js2F_-_JPltrCh-36" target="fQGNN-js2F_-_JPltrCh-14">
          <mxGeometry relative="1" as="geometry" />
        </mxCell>
        <mxCell id="fQGNN-js2F_-_JPltrCh-39" value="&amp;lt;&amp;lt;include&amp;gt;&amp;gt;" style="edgeLabel;html=1;align=center;verticalAlign=middle;resizable=0;points=[];fontSize=8;" vertex="1" connectable="0" parent="fQGNN-js2F_-_JPltrCh-38">
          <mxGeometry x="-0.1427" y="-1" relative="1" as="geometry">
            <mxPoint as="offset" />
          </mxGeometry>
        </mxCell>
        <mxCell id="fQGNN-js2F_-_JPltrCh-83" style="edgeStyle=orthogonalEdgeStyle;rounded=0;orthogonalLoop=1;jettySize=auto;html=1;exitX=0.5;exitY=1;exitDx=0;exitDy=0;entryX=0.5;entryY=0;entryDx=0;entryDy=0;dashed=1;" edge="1" parent="1" source="fQGNN-js2F_-_JPltrCh-36" target="fQGNN-js2F_-_JPltrCh-80">
          <mxGeometry relative="1" as="geometry" />
        </mxCell>
        <mxCell id="fQGNN-js2F_-_JPltrCh-36" value="Update Item Data" style="ellipse;whiteSpace=wrap;html=1;" vertex="1" parent="1">
          <mxGeometry x="490" y="365" width="75" height="50" as="geometry" />
        </mxCell>
        <mxCell id="fQGNN-js2F_-_JPltrCh-43" style="rounded=0;orthogonalLoop=1;jettySize=auto;html=1;exitX=1;exitY=1;exitDx=0;exitDy=0;entryX=0;entryY=0;entryDx=0;entryDy=0;dashed=1;" edge="1" parent="1" source="fQGNN-js2F_-_JPltrCh-40" target="fQGNN-js2F_-_JPltrCh-31">
          <mxGeometry relative="1" as="geometry" />
        </mxCell>
        <mxCell id="fQGNN-js2F_-_JPltrCh-45" value="&lt;font style=&quot;font-size: 8px;&quot;&gt;&amp;lt;&amp;lt;extend&amp;gt;&amp;gt;&lt;/font&gt;" style="edgeLabel;html=1;align=center;verticalAlign=middle;resizable=0;points=[];fontSize=8;" vertex="1" connectable="0" parent="fQGNN-js2F_-_JPltrCh-43">
          <mxGeometry x="-0.1287" relative="1" as="geometry">
            <mxPoint as="offset" />
          </mxGeometry>
        </mxCell>
        <mxCell id="fQGNN-js2F_-_JPltrCh-40" value="standard" style="ellipse;whiteSpace=wrap;html=1;" vertex="1" parent="1">
          <mxGeometry x="372.5" y="210" width="60" height="40" as="geometry" />
        </mxCell>
        <mxCell id="fQGNN-js2F_-_JPltrCh-46" style="rounded=0;orthogonalLoop=1;jettySize=auto;html=1;exitX=0.5;exitY=1;exitDx=0;exitDy=0;entryX=0.5;entryY=0;entryDx=0;entryDy=0;dashed=1;" edge="1" parent="1" source="fQGNN-js2F_-_JPltrCh-41" target="fQGNN-js2F_-_JPltrCh-31">
          <mxGeometry relative="1" as="geometry" />
        </mxCell>
        <mxCell id="fQGNN-js2F_-_JPltrCh-47" value="&lt;font style=&quot;font-size: 8px;&quot;&gt;&amp;lt;&amp;lt;extend&amp;gt;&amp;gt;&lt;/font&gt;" style="edgeLabel;html=1;align=center;verticalAlign=middle;resizable=0;points=[];fontSize=8;" vertex="1" connectable="0" parent="fQGNN-js2F_-_JPltrCh-46">
          <mxGeometry x="-0.3444" y="1" relative="1" as="geometry">
            <mxPoint x="-1" y="1" as="offset" />
          </mxGeometry>
        </mxCell>
        <mxCell id="fQGNN-js2F_-_JPltrCh-41" value="plus" style="ellipse;whiteSpace=wrap;html=1;" vertex="1" parent="1">
          <mxGeometry x="432.5" y="160" width="60" height="40" as="geometry" />
        </mxCell>
        <mxCell id="fQGNN-js2F_-_JPltrCh-48" style="rounded=0;orthogonalLoop=1;jettySize=auto;html=1;exitX=0;exitY=1;exitDx=0;exitDy=0;entryX=1;entryY=0;entryDx=0;entryDy=0;dashed=1;" edge="1" parent="1" source="fQGNN-js2F_-_JPltrCh-42" target="fQGNN-js2F_-_JPltrCh-31">
          <mxGeometry relative="1" as="geometry" />
        </mxCell>
        <mxCell id="fQGNN-js2F_-_JPltrCh-49" value="&lt;font style=&quot;font-size: 8px;&quot;&gt;&amp;lt;&amp;lt;extend&amp;gt;&amp;gt;&lt;/font&gt;" style="edgeLabel;html=1;align=center;verticalAlign=middle;resizable=0;points=[];" vertex="1" connectable="0" parent="fQGNN-js2F_-_JPltrCh-48">
          <mxGeometry x="-0.074" y="-1" relative="1" as="geometry">
            <mxPoint as="offset" />
          </mxGeometry>
        </mxCell>
        <mxCell id="fQGNN-js2F_-_JPltrCh-42" value="priority" style="ellipse;whiteSpace=wrap;html=1;" vertex="1" parent="1">
          <mxGeometry x="490" y="210" width="60" height="40" as="geometry" />
        </mxCell>
        <mxCell id="fQGNN-js2F_-_JPltrCh-55" style="edgeStyle=orthogonalEdgeStyle;rounded=0;orthogonalLoop=1;jettySize=auto;html=1;exitX=1;exitY=0.5;exitDx=0;exitDy=0;entryX=0;entryY=0.5;entryDx=0;entryDy=0;dashed=1;" edge="1" parent="1" source="fQGNN-js2F_-_JPltrCh-50" target="fQGNN-js2F_-_JPltrCh-53">
          <mxGeometry relative="1" as="geometry" />
        </mxCell>
        <mxCell id="fQGNN-js2F_-_JPltrCh-56" value="&lt;font style=&quot;font-size: 8px;&quot;&gt;&amp;lt;&amp;lt;include&amp;gt;&amp;gt;&lt;/font&gt;" style="edgeLabel;html=1;align=center;verticalAlign=middle;resizable=0;points=[];" vertex="1" connectable="0" parent="fQGNN-js2F_-_JPltrCh-55">
          <mxGeometry x="0.0333" y="-2" relative="1" as="geometry">
            <mxPoint x="-1" y="-3" as="offset" />
          </mxGeometry>
        </mxCell>
        <mxCell id="fQGNN-js2F_-_JPltrCh-50" value="Payment" style="ellipse;whiteSpace=wrap;html=1;" vertex="1" parent="1">
          <mxGeometry x="575" y="280" width="75" height="50" as="geometry" />
        </mxCell>
        <mxCell id="fQGNN-js2F_-_JPltrCh-73" style="edgeStyle=orthogonalEdgeStyle;rounded=0;orthogonalLoop=1;jettySize=auto;html=1;exitX=0.5;exitY=1;exitDx=0;exitDy=0;entryX=0.5;entryY=0;entryDx=0;entryDy=0;dashed=1;" edge="1" parent="1" source="fQGNN-js2F_-_JPltrCh-53" target="fQGNN-js2F_-_JPltrCh-72">
          <mxGeometry relative="1" as="geometry" />
        </mxCell>
        <mxCell id="fQGNN-js2F_-_JPltrCh-74" value="&lt;font style=&quot;font-size: 8px;&quot;&gt;&amp;lt;&amp;lt;include&amp;gt;&amp;gt;&lt;/font&gt;" style="edgeLabel;html=1;align=center;verticalAlign=middle;resizable=0;points=[];" vertex="1" connectable="0" parent="fQGNN-js2F_-_JPltrCh-73">
          <mxGeometry x="-0.4007" relative="1" as="geometry">
            <mxPoint as="offset" />
          </mxGeometry>
        </mxCell>
        <mxCell id="fQGNN-js2F_-_JPltrCh-53" value="Process Transaction" style="ellipse;whiteSpace=wrap;html=1;" vertex="1" parent="1">
          <mxGeometry x="710" y="280" width="75" height="50" as="geometry" />
        </mxCell>
        <mxCell id="fQGNN-js2F_-_JPltrCh-81" style="edgeStyle=orthogonalEdgeStyle;rounded=0;orthogonalLoop=1;jettySize=auto;html=1;exitX=1;exitY=0.5;exitDx=0;exitDy=0;entryX=0;entryY=0.5;entryDx=0;entryDy=0;dashed=1;" edge="1" parent="1" source="fQGNN-js2F_-_JPltrCh-54" target="fQGNN-js2F_-_JPltrCh-80">
          <mxGeometry relative="1" as="geometry" />
        </mxCell>
        <mxCell id="fQGNN-js2F_-_JPltrCh-54" value="Check item Status" style="ellipse;whiteSpace=wrap;html=1;" vertex="1" parent="1">
          <mxGeometry x="280" y="450" width="75" height="50" as="geometry" />
        </mxCell>
        <mxCell id="fQGNN-js2F_-_JPltrCh-57" value="Transfer banking" style="ellipse;whiteSpace=wrap;html=1;" vertex="1" parent="1">
          <mxGeometry x="550" y="180" width="60" height="40" as="geometry" />
        </mxCell>
        <mxCell id="fQGNN-js2F_-_JPltrCh-58" value="credit card" style="ellipse;whiteSpace=wrap;html=1;" vertex="1" parent="1">
          <mxGeometry x="620" y="180" width="60" height="40" as="geometry" />
        </mxCell>
        <mxCell id="fQGNN-js2F_-_JPltrCh-63" style="rounded=0;orthogonalLoop=1;jettySize=auto;html=1;exitX=0.5;exitY=1;exitDx=0;exitDy=0;entryX=0;entryY=0;entryDx=0;entryDy=0;dashed=1;" edge="1" parent="1" source="fQGNN-js2F_-_JPltrCh-59" target="fQGNN-js2F_-_JPltrCh-58">
          <mxGeometry relative="1" as="geometry" />
        </mxCell>
        <mxCell id="fQGNN-js2F_-_JPltrCh-59" value="Master Card" style="ellipse;whiteSpace=wrap;html=1;" vertex="1" parent="1">
          <mxGeometry x="582.5" y="120" width="60" height="40" as="geometry" />
        </mxCell>
        <mxCell id="fQGNN-js2F_-_JPltrCh-64" style="rounded=0;orthogonalLoop=1;jettySize=auto;html=1;exitX=0.5;exitY=1;exitDx=0;exitDy=0;entryX=1;entryY=0;entryDx=0;entryDy=0;dashed=1;" edge="1" parent="1" source="fQGNN-js2F_-_JPltrCh-60" target="fQGNN-js2F_-_JPltrCh-58">
          <mxGeometry relative="1" as="geometry" />
        </mxCell>
        <mxCell id="fQGNN-js2F_-_JPltrCh-60" value="Visa" style="ellipse;whiteSpace=wrap;html=1;" vertex="1" parent="1">
          <mxGeometry x="660" y="120" width="60" height="40" as="geometry" />
        </mxCell>
        <mxCell id="fQGNN-js2F_-_JPltrCh-61" style="rounded=0;orthogonalLoop=1;jettySize=auto;html=1;exitX=0.5;exitY=1;exitDx=0;exitDy=0;entryX=0.313;entryY=0.02;entryDx=0;entryDy=0;entryPerimeter=0;dashed=1;" edge="1" parent="1" source="fQGNN-js2F_-_JPltrCh-57" target="fQGNN-js2F_-_JPltrCh-50">
          <mxGeometry relative="1" as="geometry" />
        </mxCell>
        <mxCell id="fQGNN-js2F_-_JPltrCh-67" style="rounded=0;orthogonalLoop=1;jettySize=auto;html=1;exitX=0.5;exitY=1;exitDx=0;exitDy=0;entryX=0.717;entryY=0.067;entryDx=0;entryDy=0;entryPerimeter=0;dashed=1;" edge="1" parent="1" source="fQGNN-js2F_-_JPltrCh-58" target="fQGNN-js2F_-_JPltrCh-50">
          <mxGeometry relative="1" as="geometry" />
        </mxCell>
        <mxCell id="fQGNN-js2F_-_JPltrCh-68" value="&lt;font style=&quot;font-size: 8px;&quot;&gt;&amp;lt;&amp;lt;extend&amp;gt;&amp;gt;&lt;/font&gt;" style="edgeLabel;html=1;align=center;verticalAlign=middle;resizable=0;points=[];" vertex="1" connectable="0" parent="1">
          <mxGeometry x="589.996255024509" y="249.99589059494667" as="geometry" />
        </mxCell>
        <mxCell id="fQGNN-js2F_-_JPltrCh-69" value="&lt;font style=&quot;font-size: 8px;&quot;&gt;&amp;lt;&amp;lt;extend&amp;gt;&amp;gt;&lt;/font&gt;" style="edgeLabel;html=1;align=center;verticalAlign=middle;resizable=0;points=[];" vertex="1" connectable="0" parent="1">
          <mxGeometry x="642.496255024509" y="251.99589059494667" as="geometry">
            <mxPoint x="-4" y="-2" as="offset" />
          </mxGeometry>
        </mxCell>
        <mxCell id="fQGNN-js2F_-_JPltrCh-70" value="&lt;font style=&quot;font-size: 8px;&quot;&gt;&amp;lt;&amp;lt;extend&amp;gt;&amp;gt;&lt;/font&gt;" style="edgeLabel;html=1;align=center;verticalAlign=middle;resizable=0;points=[];" vertex="1" connectable="0" parent="1">
          <mxGeometry x="617.996255024509" y="167.99589059494667" as="geometry" />
        </mxCell>
        <mxCell id="fQGNN-js2F_-_JPltrCh-71" value="&lt;font style=&quot;font-size: 8px;&quot;&gt;&amp;lt;&amp;lt;extend&amp;gt;&amp;gt;&lt;/font&gt;" style="edgeLabel;html=1;align=center;verticalAlign=middle;resizable=0;points=[];" vertex="1" connectable="0" parent="1">
          <mxGeometry x="679.996255024509" y="167.99589059494667" as="geometry" />
        </mxCell>
        <mxCell id="fQGNN-js2F_-_JPltrCh-75" style="rounded=0;orthogonalLoop=1;jettySize=auto;html=1;exitX=1;exitY=0;exitDx=0;exitDy=0;endArrow=none;endFill=0;" edge="1" parent="1" source="fQGNN-js2F_-_JPltrCh-72" target="fQGNN-js2F_-_JPltrCh-4">
          <mxGeometry relative="1" as="geometry" />
        </mxCell>
        <mxCell id="fQGNN-js2F_-_JPltrCh-78" style="edgeStyle=orthogonalEdgeStyle;rounded=0;orthogonalLoop=1;jettySize=auto;html=1;exitX=0;exitY=0.5;exitDx=0;exitDy=0;dashed=1;entryX=1;entryY=0.5;entryDx=0;entryDy=0;" edge="1" parent="1" source="fQGNN-js2F_-_JPltrCh-72" target="fQGNN-js2F_-_JPltrCh-80">
          <mxGeometry relative="1" as="geometry">
            <mxPoint x="600" y="475" as="targetPoint" />
          </mxGeometry>
        </mxCell>
        <mxCell id="fQGNN-js2F_-_JPltrCh-79" value="&lt;font style=&quot;font-size: 8px;&quot;&gt;&amp;lt;&amp;lt;include&amp;gt;&amp;gt;&lt;/font&gt;" style="edgeLabel;html=1;align=center;verticalAlign=middle;resizable=0;points=[];" vertex="1" connectable="0" parent="fQGNN-js2F_-_JPltrCh-78">
          <mxGeometry x="0.0001" y="1" relative="1" as="geometry">
            <mxPoint as="offset" />
          </mxGeometry>
        </mxCell>
        <mxCell id="fQGNN-js2F_-_JPltrCh-72" value="Send item" style="ellipse;whiteSpace=wrap;html=1;" vertex="1" parent="1">
          <mxGeometry x="710" y="450" width="75" height="50" as="geometry" />
        </mxCell>
        <mxCell id="fQGNN-js2F_-_JPltrCh-77" value="&amp;lt;&amp;lt;include&amp;gt;&amp;gt;" style="edgeLabel;html=1;align=center;verticalAlign=middle;resizable=0;points=[];fontSize=8;" vertex="1" connectable="0" parent="1">
          <mxGeometry x="240" y="440.00074074074075" as="geometry" />
        </mxCell>
        <mxCell id="fQGNN-js2F_-_JPltrCh-80" value="Shipping Status" style="ellipse;whiteSpace=wrap;html=1;" vertex="1" parent="1">
          <mxGeometry x="490" y="450" width="75" height="50" as="geometry" />
        </mxCell>
        <mxCell id="fQGNN-js2F_-_JPltrCh-82" value="&amp;lt;&amp;lt;include&amp;gt;&amp;gt;" style="edgeLabel;html=1;align=center;verticalAlign=middle;resizable=0;points=[];fontSize=8;" vertex="1" connectable="0" parent="1">
          <mxGeometry x="420" y="475" as="geometry" />
        </mxCell>
        <mxCell id="fQGNN-js2F_-_JPltrCh-84" value="&lt;font style=&quot;font-size: 8px;&quot;&gt;&amp;lt;&amp;lt;include&amp;gt;&amp;gt;&lt;/font&gt;" style="edgeLabel;html=1;align=center;verticalAlign=middle;resizable=0;points=[];" vertex="1" connectable="0" parent="1">
          <mxGeometry x="527.5" y="428" as="geometry" />
        </mxCell>
      </root>
    </mxGraphModel>
  </diagram>
</mxfile>
